<svg width="222" height="6" viewBox="0 0 222 6" fill="none" xmlns="http://www.w3.org/2000/svg">
<path d="M0.5 3C0.5 1.61929 1.61929 0.5 3 0.5H67C68.3807 0.5 69.5 1.61929 69.5 3C69.5 4.38071 68.3807 5.5 67 5.5H3C1.61929 5.5 0.5 4.38071 0.5 3Z" fill="#FFB800" stroke="#FFB800"/>
<path d="M76.5 3C76.5 1.61929 77.6193 0.5 79 0.5H143C144.381 0.5 145.5 1.61929 145.5 3C145.5 4.38071 144.381 5.5 143 5.5H79C77.6193 5.5 76.5 4.38071 76.5 3Z" fill="#EDEDED" stroke="#EDEDED"/>
<path d="M152.5 3C152.5 1.61929 153.619 0.5 155 0.5H219C220.381 0.5 221.5 1.61929 221.5 3C221.5 4.38071 220.381 5.5 219 5.5H155C153.619 5.5 152.5 4.38071 152.5 3Z" fill="#EAD200" stroke="#EAD200"/>
</svg>
