<svg width="35" height="35" viewBox="0 0 35 35" fill="none" xmlns="http://www.w3.org/2000/svg">
<path d="M17.4998 2.91667C9.44546 2.91667 2.9165 9.44563 2.9165 17.5C2.9165 25.5544 9.44546 32.0833 17.4998 32.0833C25.5542 32.0833 32.0832 25.5544 32.0832 17.5C32.0832 9.44563 25.5542 2.91667 17.4998 2.91667ZM17.4998 5.83334C23.9428 5.83334 29.1665 11.0571 29.1665 17.5C29.1665 19.8294 28.4744 21.9933 27.298 23.8147L26.1758 22.946C23.9124 21.2003 19.7413 20.4167 17.4998 20.4167C15.2584 20.4167 11.0858 21.2003 8.82389 22.946L7.70166 23.8175C6.52448 21.9957 5.83317 19.8303 5.83317 17.5C5.83317 11.0571 11.0569 5.83334 17.4998 5.83334ZM17.4998 8.38542C14.8865 8.38542 12.7603 10.5117 12.7603 13.125C12.7603 15.7383 14.8865 17.8646 17.4998 17.8646C20.1132 17.8646 22.2394 15.7383 22.2394 13.125C22.2394 10.5117 20.1132 8.38542 17.4998 8.38542ZM17.4998 11.3021C18.5046 11.3021 19.3228 12.1202 19.3228 13.125C19.3228 14.1298 18.5046 14.9479 17.4998 14.9479C16.495 14.9479 15.6769 14.1298 15.6769 13.125C15.6769 12.1202 16.495 11.3021 17.4998 11.3021ZM17.4998 23.3333C22.0217 23.3333 24.4533 25.0374 25.5919 25.8911C23.4936 27.9152 20.6452 29.1667 17.4998 29.1667C14.3544 29.1667 11.5061 27.9152 9.4078 25.8911C10.5464 25.0374 12.978 23.3333 17.4998 23.3333ZM26.1217 25.3385C25.9617 25.5143 25.802 25.6912 25.6318 25.8569C25.8016 25.6922 25.9603 25.5135 26.1217 25.3385Z" fill="black"/>
</svg>
